<?xml version="1.0" standalone="no"?>
<!DOCTYPE svg PUBLIC "-//W3C//DTD SVG 20010904//EN"
 "http://www.w3.org/TR/2001/REC-SVG-20010904/DTD/svg10.dtd">
<svg version="1.0" xmlns="http://www.w3.org/2000/svg"
 width="810.000000pt" height="810.000000pt" viewBox="0 0 810.000000 810.000000"
 preserveAspectRatio="xMidYMid meet">
<metadata>
Created by potrace 1.14, written by Peter Selinger 2001-2017
</metadata>
<g transform="translate(0.000000,810.000000) scale(0.100000,-0.100000)"
fill="#000000" stroke="none">
<path d="M3313 7386 c-21 -12 -183 -173 -183 -182 0 -5 -39 -44 -44 -44 -4 0
-90 -88 -184 -187 -27 -29 -55 -53 -61 -53 -6 0 -11 -4 -11 -10 0 -5 -71 -82
-157 -170 -87 -88 -184 -187 -216 -220 -31 -33 -61 -60 -66 -60 -6 0 -13 -9
-16 -20 -3 -11 -11 -20 -17 -20 -12 0 -48 -39 -48 -52 0 -4 -7 -8 -15 -8 -8 0
-15 -5 -15 -10 0 -10 -114 -130 -124 -130 -3 0 -22 -19 -43 -41 -21 -23 -77
-80 -125 -128 -47 -47 -92 -92 -100 -100 -110 -115 -410 -411 -415 -411 -10 0
-150 -137 -276 -268 -34 -36 -165 -166 -234 -233 -43 -42 -98 -99 -123 -128
-60 -70 -178 -191 -188 -191 -4 0 -16 -14 -27 -30 -11 -16 -24 -30 -29 -30 -5
0 -24 -15 -41 -33 -17 -17 -48 -45 -68 -62 -20 -16 -39 -37 -42 -45 -5 -15
-24 -35 -175 -184 -41 -40 -85 -84 -96 -97 -12 -13 -54 -55 -94 -94 -97 -95
-97 -95 71 -255 127 -120 1194 -1186 1272 -1269 21 -23 40 -41 43 -41 10 0
304 -301 304 -311 0 -5 5 -9 11 -9 6 0 31 -23 57 -52 26 -28 55 -59 66 -67 13
-12 403 -395 538 -529 4 -4 29 -31 56 -59 27 -29 55 -53 61 -53 6 0 11 -5 11
-11 0 -6 18 -29 40 -50 22 -22 40 -43 40 -49 0 -5 5 -10 10 -10 6 0 52 -42
103 -93 51 -50 142 -140 202 -198 61 -59 165 -163 232 -233 71 -73 132 -128
147 -132 27 -7 24 -9 143 121 20 21 23 28 23 46 0 5 5 7 12 3 6 -4 8 -3 5 4
-9 14 3 43 14 36 5 -3 9 2 9 10 0 8 7 21 15 30 9 8 15 17 14 18 -6 9 14 47 22
43 5 -3 6 1 3 9 -3 9 -1 16 5 16 6 0 11 9 11 20 0 11 4 20 8 20 5 0 9 6 9 13
1 6 8 37 17 67 9 30 19 64 22 75 25 85 37 309 23 430 -5 44 -20 112 -33 150
-13 39 -27 85 -31 104 -4 18 -18 49 -31 68 -13 20 -24 40 -24 45 0 15 -83 148
-92 148 -5 0 -14 12 -20 26 -17 37 -134 158 -628 654 -239 240 -485 488 -547
551 -61 63 -203 204 -315 315 -247 244 -278 278 -278 307 0 12 17 40 38 63 20
22 48 55 62 72 14 18 30 32 37 32 6 0 14 8 18 18 3 9 44 53 91 97 47 44 282
276 523 515 241 239 479 475 530 524 50 49 91 93 91 98 0 4 4 8 10 8 9 0 224
211 232 227 1 4 18 20 36 36 19 15 31 27 28 27 -3 0 10 16 28 36 19 20 40 50
47 65 6 16 17 29 24 29 7 0 18 14 25 30 7 17 17 30 22 30 5 0 6 5 3 10 -3 6
-2 10 2 10 5 0 24 31 43 70 18 38 38 66 43 63 6 -3 7 -1 3 5 -3 6 -2 22 4 36
5 15 12 37 14 49 2 12 10 36 17 52 58 139 58 514 1 647 -11 25 -23 61 -26 79
-2 18 -13 44 -23 58 -11 14 -27 47 -37 74 -10 26 -23 53 -29 60 -7 6 -19 26
-27 42 -29 59 -82 125 -126 155 -49 33 -58 34 -91 16z"/>
<path d="M4698 7344 c-15 -8 -35 -29 -44 -47 -9 -17 -27 -45 -40 -60 -13 -16
-24 -35 -24 -42 0 -7 -6 -20 -13 -27 -33 -33 -105 -191 -130 -283 -51 -193
-60 -323 -32 -485 13 -78 20 -105 55 -225 7 -22 20 -51 30 -65 9 -14 23 -43
30 -65 8 -22 21 -47 29 -55 9 -8 25 -32 36 -52 11 -21 23 -38 28 -38 4 0 11
-9 15 -19 7 -21 84 -113 116 -140 10 -9 37 -35 60 -59 22 -24 211 -214 419
-422 207 -208 377 -384 377 -389 0 -6 7 -11 15 -11 8 0 15 -4 15 -9 0 -8 296
-311 304 -311 4 0 255 -252 416 -417 33 -34 60 -69 60 -78 0 -33 -38 -77 -176
-207 -21 -20 -44 -42 -50 -50 -6 -7 -53 -51 -103 -98 -51 -47 -170 -163 -264
-259 -403 -406 -528 -531 -531 -531 -7 0 -583 -579 -621 -625 -22 -26 -52 -62
-67 -79 -16 -17 -28 -35 -28 -40 0 -5 -8 -16 -18 -25 -10 -9 -28 -41 -41 -71
-13 -30 -29 -62 -37 -70 -7 -9 -19 -40 -25 -70 -6 -30 -17 -67 -24 -81 -8 -14
-20 -61 -29 -105 -22 -111 -15 -434 10 -490 9 -22 16 -42 16 -46 -1 -5 2 -8 7
-8 5 0 14 -28 20 -62 6 -34 22 -77 36 -98 14 -20 25 -39 25 -43 0 -4 16 -30
35 -58 19 -28 35 -56 35 -61 0 -6 12 -25 28 -42 15 -18 36 -44 47 -59 11 -15
25 -27 32 -27 7 0 13 -4 13 -10 0 -21 48 -21 86 -1 21 12 36 21 32 21 -3 0 57
64 135 143 78 79 163 167 188 195 26 29 52 52 58 52 6 0 10 4 8 9 -2 8 97 111
107 111 3 0 22 18 43 41 64 69 96 99 104 99 4 0 11 9 14 20 3 11 13 20 21 20
8 0 14 4 14 9 0 8 38 52 98 113 9 10 22 22 27 28 6 6 64 64 130 130 66 66 125
124 130 130 56 60 724 724 754 750 86 75 279 269 274 274 -4 3 -1 6 6 6 14 0
361 346 355 353 -3 3 10 15 28 28 18 13 34 27 36 31 2 4 61 66 133 139 71 72
129 135 129 140 0 5 6 9 13 9 7 0 50 41 97 90 47 50 91 90 98 90 7 0 11 3 9 8
-5 10 221 231 228 223 4 -3 5 -1 4 4 -2 6 2 20 9 32 10 19 8 27 -13 60 -25 37
-231 253 -242 253 -3 0 -45 41 -95 90 -49 50 -93 90 -99 90 -5 0 -9 3 -9 8 0
8 -35 46 -66 73 -11 9 -26 26 -34 37 -8 12 -18 22 -22 22 -4 0 -84 78 -178
173 -93 94 -178 180 -188 189 -9 10 -20 21 -25 25 -43 44 -163 164 -187 187
-16 16 -30 33 -30 38 0 4 -5 8 -11 8 -13 0 -429 416 -429 430 0 5 -5 10 -11
10 -13 0 -49 38 -49 52 0 4 -6 8 -13 8 -7 0 -19 10 -27 22 -8 11 -23 28 -33
37 -22 20 -268 256 -282 271 -5 6 -18 19 -29 28 -10 9 -24 23 -30 29 -19 22
-177 179 -258 258 -43 41 -78 79 -78 85 0 5 -3 10 -8 10 -9 0 -467 455 -532
528 -25 28 -48 51 -52 52 -8 0 -120 111 -184 182 -41 45 -91 78 -119 78 -11
-1 -32 -7 -47 -16z"/>
<path d="M4003 4863 c-22 -15 -49 -40 -58 -55 -9 -15 -23 -28 -31 -28 -8 0
-20 -11 -26 -25 -6 -13 -19 -27 -30 -30 -10 -4 -18 -10 -18 -14 0 -4 -54 -61
-121 -127 -159 -158 -212 -213 -222 -230 -4 -8 -12 -14 -17 -14 -10 0 -110
-101 -110 -111 0 -4 -9 -11 -20 -14 -11 -3 -20 -10 -20 -15 0 -4 -27 -36 -60
-71 -33 -34 -60 -69 -60 -76 0 -14 58 -95 72 -101 5 -2 64 -60 134 -128 69
-68 129 -124 133 -124 4 0 13 -10 20 -23 6 -12 25 -30 41 -39 17 -9 30 -24 30
-33 0 -8 5 -15 10 -15 6 0 35 -26 65 -57 30 -32 59 -62 65 -68 10 -9 25 -23
70 -68 81 -82 141 -137 167 -156 l33 -22 47 33 c27 18 59 45 71 60 13 15 30
28 38 28 9 0 13 4 9 9 -6 10 7 25 48 55 14 11 24 23 21 28 -3 4 2 8 10 8 9 0
23 12 33 28 10 15 22 30 28 34 25 16 73 67 67 72 -3 3 0 6 8 6 7 0 39 27 71
60 32 33 61 60 64 60 4 0 18 14 32 30 13 17 32 30 41 30 8 0 12 3 9 7 -4 3 29
42 72 85 44 43 78 78 75 78 -3 0 8 11 24 25 17 14 36 25 43 25 7 0 9 3 6 6 -3
4 3 18 13 32 11 13 20 28 20 31 0 19 -281 311 -300 311 -5 0 -10 4 -10 9 0 5
-66 75 -147 155 -82 81 -151 150 -155 154 -101 103 -138 145 -138 153 0 5 -6
9 -12 9 -7 0 -26 11 -42 25 -36 31 -41 31 -93 -2z"/>
</g>
</svg>
